<?xml version="1.0" standalone="no"?>
<!DOCTYPE svg PUBLIC "-//W3C//DTD SVG 20010904//EN"
 "http://www.w3.org/TR/2001/REC-SVG-20010904/DTD/svg10.dtd">
<svg version="1.0" xmlns="http://www.w3.org/2000/svg"
 width="128.000000pt" height="128.000000pt" viewBox="0 0 128.000000 128.000000"
 preserveAspectRatio="xMidYMid meet">

<g transform="translate(0.000000,128.000000) scale(0.100000,-0.100000)"
fill="#000000" stroke="none">
<path d="M557 1270 c-60 -16 -135 -58 -178 -101 -87 -87 -138 -266 -90 -316
25 -27 82 -31 105 -8 17 18 22 33 31 98 8 59 55 123 115 157 115 63 270 -2
309 -129 6 -21 11 -88 11 -150 l0 -111 -319 0 c-345 0 -343 0 -356 -53 -3 -12
-5 -156 -3 -320 l3 -299 24 -19 c22 -18 44 -19 431 -19 387 0 409 1 431 19
l24 19 3 299 c2 164 0 308 -3 320 -7 31 -33 53 -60 53 -23 0 -23 1 -27 143 -3
134 -5 146 -35 209 -39 83 -97 142 -178 179 -70 33 -172 45 -238 29z m155
-770 c27 -28 29 -34 24 -78 -4 -26 -10 -90 -14 -142 -4 -52 -11 -101 -15 -107
-11 -17 -123 -17 -134 0 -4 6 -11 55 -15 107 -4 52 -10 116 -14 142 -5 44 -3
50 24 78 43 42 101 42 144 0z"/>
</g>
</svg>
