<?xml version="1.0" standalone="no"?>
<!DOCTYPE svg PUBLIC "-//W3C//DTD SVG 20010904//EN"
 "http://www.w3.org/TR/2001/REC-SVG-20010904/DTD/svg10.dtd">
<svg version="1.0" xmlns="http://www.w3.org/2000/svg"
 width="128.000000pt" height="128.000000pt" viewBox="0 0 128.000000 128.000000"
 preserveAspectRatio="xMidYMid meet">

<g transform="translate(0.000000,128.000000) scale(0.100000,-0.100000)"
fill="#000000" stroke="none">
<path d="M16 1114 c-14 -14 -16 -70 -16 -474 0 -404 2 -460 16 -474 14 -14 84
-16 624 -16 540 0 610 2 624 16 14 14 16 70 16 474 0 404 -2 460 -16 474 -14
14 -84 16 -624 16 -540 0 -610 -2 -624 -16z m1194 -474 l0 -410 -570 0 -570 0
0 410 0 410 570 0 570 0 0 -410z"/>
<path d="M355 920 c-92 -21 -155 -136 -114 -211 8 -17 5 -26 -22 -56 -44 -51
-59 -92 -66 -182 -5 -71 -4 -80 16 -100 20 -20 30 -21 221 -21 191 0 201 1
221 21 20 20 21 29 16 100 -7 90 -22 131 -66 182 -27 30 -30 39 -22 56 17 31
13 88 -9 130 -31 62 -107 97 -175 81z m93 -90 c60 -56 24 -150 -58 -150 -58 0
-99 51 -86 105 10 38 45 65 86 65 23 0 44 -8 58 -20z m-58 -222 c26 0 56 4 67
10 43 24 93 -50 93 -137 l0 -51 -160 0 -160 0 0 51 c0 87 50 161 93 137 11 -6
41 -10 67 -10z"/>
<path d="M761 832 c-6 -11 -6 -24 0 -35 9 -15 28 -17 144 -17 121 0 134 2 140
19 3 10 3 26 -1 35 -5 14 -25 16 -140 16 -117 0 -134 -2 -143 -18z"/>
<path d="M778 673 c-28 -7 -24 -59 5 -67 29 -8 285 -8 315 0 16 5 22 14 22 34
0 20 -6 29 -22 34 -26 7 -294 6 -320 -1z"/>
<path d="M761 482 c-6 -11 -6 -24 0 -35 9 -15 29 -17 179 -17 150 0 170 2 179
17 6 11 6 24 0 35 -9 16 -27 18 -179 18 -152 0 -170 -2 -179 -18z"/>
</g>
</svg>
