<?xml version="1.0" standalone="no"?>
<!DOCTYPE svg PUBLIC "-//W3C//DTD SVG 20010904//EN"
 "http://www.w3.org/TR/2001/REC-SVG-20010904/DTD/svg10.dtd">
<svg version="1.0" xmlns="http://www.w3.org/2000/svg"
 width="128.000000pt" height="128.000000pt" viewBox="0 0 128.000000 128.000000"
 preserveAspectRatio="xMidYMid meet">

<g transform="translate(0.000000,128.000000) scale(0.100000,-0.100000)"
fill="#000000" stroke="none">
<path d="M40 1033 c0 -7 0 -765 0 -785 0 -12 1198 -10 1202 2 2 5 2 185 0 400
l-2 390 -600 0 c-330 0 -600 -3 -600 -7z m1138 -31 c-8 -20 -433 -399 -470
-419 -52 -29 -84 -29 -136 -1 -37 21 -462 400 -470 420 -2 4 240 8 538 8 298
0 540 -4 538 -8z m-873 -233 c94 -85 170 -157 170 -161 0 -6 -391 -308 -400
-308 -3 0 -5 154 -5 342 l0 342 33 -30 c17 -17 109 -100 202 -185z m901 -466
c-5 -6 -401 296 -401 306 0 4 90 88 200 188 l200 182 3 -336 c1 -185 0 -338
-2 -340z m-659 255 c52 -31 133 -31 189 1 l42 23 193 -147 c107 -81 196 -151
197 -156 2 -5 -212 -9 -528 -9 -316 0 -530 4 -528 9 3 10 379 300 390 300 4 1
24 -9 45 -21z"/>
</g>
</svg>
