<?xml version="1.0" standalone="no"?>
<!DOCTYPE svg PUBLIC "-//W3C//DTD SVG 20010904//EN"
 "http://www.w3.org/TR/2001/REC-SVG-20010904/DTD/svg10.dtd">
<svg version="1.0" xmlns="http://www.w3.org/2000/svg"
 width="128.000000pt" height="128.000000pt" viewBox="0 0 128.000000 128.000000"
 preserveAspectRatio="xMidYMid meet">

<g transform="translate(0.000000,128.000000) scale(0.100000,-0.100000)"
fill="#000000" stroke="none">
<path d="M203 1265 c-14 -10 -23 -28 -25 -53 l-3 -37 -62 -5 c-47 -4 -68 -11
-85 -28 l-23 -23 -3 -412 c-2 -285 0 -424 8 -450 19 -65 32 -67 409 -67 l329
0 6 -23 c9 -38 82 -113 133 -138 67 -32 170 -32 235 0 61 29 122 99 144 163
33 100 -5 236 -83 295 l-33 25 0 305 0 304 -25 24 c-20 21 -34 25 -85 25 l-60
0 0 35 c0 64 -65 97 -118 59 -16 -11 -22 -25 -22 -55 l0 -39 -100 0 -100 0 0
35 c0 96 -134 103 -142 7 l-3 -37 -87 -3 -88 -3 0 36 c0 64 -64 97 -117 60z
m75 -111 c2 -68 0 -83 -13 -88 -9 -3 -25 -1 -36 4 -16 9 -19 22 -19 75 0 83 6
97 39 93 25 -3 26 -5 29 -84z m320 0 c2 -68 0 -83 -13 -88 -9 -3 -25 -1 -36 4
-16 9 -19 22 -19 75 0 83 6 97 39 93 25 -3 26 -5 29 -84z m340 0 c2 -66 0 -83
-13 -87 -36 -14 -45 2 -45 82 0 84 4 93 35 89 18 -3 20 -11 23 -84z m-758 -64
c0 -45 18 -60 71 -60 43 0 69 25 69 67 l0 33 90 0 90 0 0 -40 c0 -45 18 -60
71 -60 43 0 69 25 69 67 l0 33 100 0 100 0 0 -34 c0 -44 22 -66 67 -66 47 0
73 24 73 67 l0 33 53 0 c29 0 58 -5 65 -12 7 -7 12 -44 12 -95 l0 -83 -535 0
-535 0 0 76 c0 105 7 114 80 114 l60 0 0 -40z m930 -375 l0 -185 -26 10 c-34
13 -131 11 -171 -3 -102 -38 -172 -131 -181 -243 l-5 -64 -328 0 c-327 0 -328
0 -343 22 -14 19 -16 68 -16 329 0 168 3 309 7 312 3 4 244 7 535 7 l528 0 0
-185z m-3 -226 c124 -60 170 -218 97 -336 -78 -126 -254 -148 -359 -46 -154
150 -54 403 159 403 40 0 74 -7 103 -21z"/>
<path d="M193 823 c-9 -3 -13 -33 -13 -98 0 -75 3 -94 16 -99 29 -11 160 -6
172 6 7 7 12 45 12 99 0 70 -3 88 -16 93 -19 7 -153 7 -171 -1z m157 -98 l0
-65 -70 0 -70 0 0 65 0 65 70 0 70 0 0 -65z"/>
<path d="M480 811 c-17 -32 -13 -157 6 -175 19 -20 163 -23 182 -4 7 7 12 43
12 93 0 50 -5 86 -12 93 -7 7 -44 12 -95 12 -71 0 -84 -3 -93 -19z m160 -86
l0 -65 -65 0 -65 0 0 65 0 65 65 0 65 0 0 -65z"/>
<path d="M780 811 c-17 -32 -13 -157 6 -175 19 -20 163 -23 182 -4 7 7 12 43
12 93 0 50 -5 86 -12 93 -7 7 -44 12 -95 12 -71 0 -84 -3 -93 -19z m160 -86
l0 -65 -65 0 -65 0 0 65 0 65 65 0 65 0 0 -65z"/>
<path d="M187 564 c-4 -4 -7 -47 -7 -95 0 -105 4 -109 102 -109 94 0 99 7 96
115 l-3 90 -90 3 c-50 1 -94 0 -98 -4z m158 -94 l0 -65 -65 0 -65 0 -3 54 c-5
80 -2 82 70 79 l63 -3 0 -65z"/>
<path d="M481 551 c-6 -11 -11 -49 -11 -85 0 -91 16 -106 108 -106 98 0 103 6
100 115 l-3 90 -92 3 c-83 2 -93 1 -102 -17z m159 -81 l0 -71 -62 3 -63 3 -3
54 c-5 78 -2 81 68 81 l60 0 0 -70z"/>
<path d="M92 503 c4 -36 33 -39 33 -3 0 16 -6 26 -18 28 -15 3 -18 -2 -15 -25z"/>
<path d="M90 362 c0 -32 5 -63 12 -70 7 -7 34 -12 61 -12 41 0 48 3 45 18 -2
12 -14 18 -41 20 l-37 3 0 50 c0 42 -3 49 -20 49 -18 0 -20 -7 -20 -58z"/>
<path d="M265 310 c-4 -7 -3 -16 3 -22 14 -14 47 -6 47 12 0 18 -40 26 -50 10z"/>
<path d="M1028 300 l-73 -81 -18 26 c-20 26 -57 34 -57 12 0 -21 79 -92 89
-82 69 73 161 182 161 192 0 30 -33 8 -102 -67z"/>
</g>
</svg>
