<?xml version="1.0" standalone="no"?>
<!DOCTYPE svg PUBLIC "-//W3C//DTD SVG 20010904//EN"
 "http://www.w3.org/TR/2001/REC-SVG-20010904/DTD/svg10.dtd">
<svg version="1.0" xmlns="http://www.w3.org/2000/svg"
 width="128.000000pt" height="128.000000pt" viewBox="0 0 128.000000 128.000000"
 preserveAspectRatio="xMidYMid meet">

<g transform="translate(0.000000,128.000000) scale(0.100000,-0.100000)"
fill="#000000" stroke="none">
<path d="M530 1144 c-197 -42 -353 -200 -395 -399 -18 -88 -18 -122 0 -210 42
-201 199 -358 400 -400 88 -18 122 -18 210 0 201 42 358 199 400 400 18 88 18
122 0 210 -42 201 -199 358 -400 400 -85 18 -130 18 -215 -1z m187 -240 c115
-55 124 -229 15 -312 -29 -22 -46 -27 -92 -27 -46 0 -63 5 -92 27 -87 66 -104
202 -35 277 47 50 138 66 204 35z m84 -453 c59 -23 149 -93 149 -116 0 -23
-110 -94 -178 -115 -83 -26 -181 -26 -264 0 -68 21 -178 92 -178 114 0 15 66
78 102 97 99 54 260 62 369 20z"/>
</g>
</svg>
