<?xml version="1.0" standalone="no"?>
<!DOCTYPE svg PUBLIC "-//W3C//DTD SVG 20010904//EN"
 "http://www.w3.org/TR/2001/REC-SVG-20010904/DTD/svg10.dtd">
<svg version="1.0" xmlns="http://www.w3.org/2000/svg"
 width="128.000000pt" height="128.000000pt" viewBox="0 0 128.000000 128.000000"
 preserveAspectRatio="xMidYMid meet">

<g transform="translate(0.000000,128.000000) scale(0.100000,-0.100000)"
fill="#000000" stroke="none">
<path d="M445 1267 c-68 -23 -101 -44 -149 -98 -112 -125 -98 -315 32 -430 61
-53 125 -73 222 -67 92 5 145 32 208 103 130 148 78 389 -103 474 -58 27 -156
36 -210 18z m141 -68 c60 -15 137 -85 160 -144 25 -65 15 -155 -23 -209 -48
-68 -103 -100 -181 -104 -108 -6 -184 38 -228 133 -62 132 10 281 156 326 37
11 66 10 116 -2z"/>
<path d="M194 644 c-107 -38 -174 -165 -190 -359 -10 -132 23 -212 109 -258
41 -22 48 -22 422 -22 l380 0 47 28 c31 18 57 44 75 74 24 42 27 55 25 139 -3
216 -78 366 -201 402 -55 17 -81 15 -121 -10 -157 -96 -243 -100 -381 -17 -71
42 -99 46 -165 23z m126 -84 c55 -37 157 -70 216 -70 56 0 147 30 212 70 45
29 53 31 89 21 94 -26 153 -152 153 -332 0 -93 -15 -130 -63 -156 -28 -16 -69
-18 -369 -21 -369 -3 -404 1 -449 49 -36 39 -44 92 -29 198 20 144 66 231 140
260 39 15 52 13 100 -19z"/>
</g>
</svg>
