<?xml version="1.0" standalone="no"?>
<!DOCTYPE svg PUBLIC "-//W3C//DTD SVG 20010904//EN"
 "http://www.w3.org/TR/2001/REC-SVG-20010904/DTD/svg10.dtd">
<svg version="1.0" xmlns="http://www.w3.org/2000/svg"
 width="512.000000pt" height="512.000000pt" viewBox="0 0 512.000000 512.000000"
 preserveAspectRatio="xMidYMid meet">

<g transform="translate(0.000000,512.000000) scale(0.100000,-0.100000)"
fill="#000000" stroke="none">
<path d="M2371 5110 c-798 -66 -1500 -476 -1935 -1130 -289 -433 -429 -897
-429 -1420 0 -690 259 -1317 748 -1805 487 -488 1115 -748 1805 -748 597 0
1139 191 1610 567 208 166 447 444 593 690 326 551 431 1221 291 1856 -211
956 -979 1723 -1934 1934 -233 51 -534 74 -749 56z m-556 -1238 c64 -31 98
-61 408 -370 l337 -336 338 336 c308 308 343 340 407 370 66 31 76 33 180 33
103 0 114 -2 177 -32 94 -44 160 -109 206 -202 36 -73 37 -78 37 -185 0 -105
-2 -115 -33 -181 -30 -64 -62 -99 -370 -407 l-336 -338 336 -337 c308 -309
340 -344 370 -408 31 -66 33 -76 33 -181 0 -107 -1 -112 -37 -185 -46 -93
-112 -158 -206 -202 -63 -30 -74 -32 -177 -32 -104 0 -114 2 -180 33 -64 30
-99 62 -407 370 l-338 336 -337 -336 c-309 -308 -344 -340 -408 -370 -66 -31
-76 -33 -180 -33 -103 0 -114 2 -177 32 -94 44 -160 109 -206 202 -36 73 -37
78 -37 185 0 105 2 115 33 181 30 64 62 99 370 408 l336 337 -336 338 c-308
308 -340 343 -370 407 -31 66 -33 76 -33 180 0 103 2 114 32 177 53 113 137
187 258 231 38 13 73 17 145 14 83 -2 104 -7 165 -35z"/>
</g>
</svg>
