<svg version="1.1" id="Layer_1" xmlns="http://www.w3.org/2000/svg" xmlns:xlink="http://www.w3.org/1999/xlink" x="0px" y="0px"
	 width="100%" viewBox="0 0 128 128" enable-background="new 0 0 128 128" xml:space="preserve">
<path fill="#FFFFFF" opacity="1.000000" stroke="none" 
	d="
M39.000000,129.000000 
	C26.355358,129.000000 13.710714,129.000000 1.033036,129.000000 
	C1.033036,86.429565 1.033036,43.859097 1.033036,1.000000 
	C29.353575,1.000000 57.708130,1.000000 86.525726,1.428172 
	C89.166389,9.943852 87.097054,17.155737 82.587143,23.938021 
	C75.260132,34.956837 63.939102,40.589947 52.469555,45.671253 
	C41.962788,50.326023 31.932949,55.238338 24.747229,64.672562 
	C19.008329,72.207222 16.037573,80.971626 16.308470,89.996025 
	C16.668823,102.000443 20.313072,113.477379 27.147125,122.937660 
	C30.018984,113.426842 32.388813,103.272659 36.152729,93.664597 
	C41.534203,79.927460 49.896538,68.318542 64.119987,62.111618 
	C64.445557,62.410000 64.583405,62.520855 64.500900,62.881668 
	C51.463280,74.265030 44.147312,88.574478 40.604515,104.908585 
	C39.093426,111.875488 38.296925,118.997398 37.108543,126.383995 
	C37.694260,127.479416 38.347134,128.239700 39.000000,129.000000 
M38.965431,19.974915 
	C38.976807,18.976336 39.357666,17.765472 38.929150,17.019632 
	C37.722878,14.920097 36.564030,11.956141 34.685280,11.279274 
	C31.967941,10.300283 28.600843,10.303760 26.845003,14.277187 
	C25.329920,17.705784 25.746862,20.648863 28.426483,22.613026 
	C32.139748,25.334854 35.861046,24.585480 38.965431,19.974915 
M67.941269,26.433777 
	C69.365562,26.049086 70.997414,25.981974 72.171585,25.214573 
	C74.733131,23.540430 76.328499,20.797117 74.397469,18.145115 
	C73.011040,16.241037 69.846863,13.950122 68.127998,14.388603 
	C65.904564,14.955803 63.344070,17.814680 62.741436,20.153851 
	C62.076641,22.734314 63.403435,25.893053 67.941269,26.433777 
M20.511230,42.991390 
	C19.304054,45.591259 19.877428,47.698429 22.774311,48.208939 
	C24.212103,48.462315 26.608833,47.940361 27.221146,46.941360 
	C27.875313,45.874069 27.409933,42.809299 26.594709,42.432968 
	C25.027258,41.709396 22.868162,42.267487 20.511230,42.991390 
M36.571018,39.055050 
	C35.153595,39.449734 33.633369,39.663483 32.392353,40.368626 
	C32.088989,40.541000 32.365116,42.871349 32.967815,43.239975 
	C33.930260,43.828636 36.145054,44.115025 36.479668,43.618660 
	C37.159492,42.610233 36.936661,40.993294 36.571018,39.055050 
z"/>
<path fill="#499F10" opacity="1.000000" stroke="none" 
	d="
M63.932270,61.924095 
	C49.896538,68.318542 41.534203,79.927460 36.152729,93.664597 
	C32.388813,103.272659 30.018984,113.426842 27.147125,122.937660 
	C20.313072,113.477379 16.668823,102.000443 16.308470,89.996025 
	C16.037573,80.971626 19.008329,72.207222 24.747229,64.672562 
	C31.932949,55.238338 41.962788,50.326023 52.469555,45.671253 
	C63.939102,40.589947 75.260132,34.956837 82.587143,23.938021 
	C87.097054,17.155737 89.166389,9.943852 86.994385,1.428172 
	C87.000000,1.000000 87.500000,1.000000 87.845177,1.334872 
	C96.322990,12.083035 102.089104,23.780506 106.583191,36.322792 
	C105.900803,39.047939 105.474991,41.481846 105.041527,43.914391 
	C98.326950,81.596321 77.033249,108.232536 43.202843,125.271240 
	C41.496170,126.130806 39.198303,125.816566 37.175705,126.048866 
	C38.296925,118.997398 39.093426,111.875488 40.604515,104.908585 
	C44.147312,88.574478 51.463280,74.265030 64.715698,62.691383 
	C65.303108,61.916821 65.455360,61.582500 65.607605,61.248177 
	C65.049164,61.473484 64.490715,61.698792 63.932270,61.924095 
z"/>
<path fill="#FFFFFF" opacity="1.000000" stroke="none" 
	d="
M106.836220,36.030926 
	C102.089104,23.780506 96.322990,12.083035 88.095177,1.334872 
	C101.640732,1.000000 115.281464,1.000000 128.961090,1.000000 
	C128.961090,43.559742 128.961090,86.119530 128.961090,129.000000 
	C108.646896,129.000000 88.292107,129.000000 67.622070,128.623047 
	C70.038673,127.826149 72.818222,127.602516 75.494095,126.952217 
	C87.022964,124.150467 96.755165,118.052322 103.601067,108.552864 
	C111.748199,97.247765 113.696663,83.549400 113.700180,70.140152 
	C113.703217,58.568390 111.263664,46.972305 106.836220,36.030926 
z"/>
<path fill="#3A7F0D" opacity="1.000000" stroke="none" 
	d="
M106.583191,36.322792 
	C111.263664,46.972305 113.703217,58.568390 113.700180,70.140152 
	C113.696663,83.549400 111.748199,97.247765 103.601067,108.552864 
	C96.755165,118.052322 87.022964,124.150467 75.494095,126.952217 
	C72.818222,127.602516 70.038673,127.826149 67.153412,128.623047 
	C57.979103,129.000000 48.958210,129.000000 39.468658,129.000000 
	C38.347134,128.239700 37.694260,127.479416 37.108547,126.383995 
	C39.198303,125.816566 41.496170,126.130806 43.202843,125.271240 
	C77.033249,108.232536 98.326950,81.596321 105.041527,43.914391 
	C105.474991,41.481846 105.900803,39.047939 106.583191,36.322792 
z"/>
<path fill="#49A010" opacity="1.000000" stroke="none" 
	d="
M38.843834,20.370499 
	C35.861046,24.585480 32.139748,25.334854 28.426483,22.613026 
	C25.746862,20.648863 25.329920,17.705784 26.845003,14.277187 
	C28.600843,10.303760 31.967941,10.300283 34.685280,11.279274 
	C36.564030,11.956141 37.722878,14.920097 38.929150,17.019632 
	C39.357666,17.765472 38.976807,18.976336 38.843834,20.370499 
z"/>
<path fill="#49A010" opacity="1.000000" stroke="none" 
	d="
M67.608833,26.244600 
	C63.403435,25.893053 62.076641,22.734314 62.741436,20.153851 
	C63.344070,17.814680 65.904564,14.955803 68.127998,14.388603 
	C69.846863,13.950122 73.011040,16.241037 74.397469,18.145115 
	C76.328499,20.797117 74.733131,23.540430 72.171585,25.214573 
	C70.997414,25.981974 69.365562,26.049086 67.608833,26.244600 
z"/>
<path fill="#3A7F0D" opacity="1.000000" stroke="none" 
	d="
M20.732845,42.642689 
	C22.868162,42.267487 25.027258,41.709396 26.594709,42.432968 
	C27.409933,42.809299 27.875313,45.874069 27.221146,46.941360 
	C26.608833,47.940361 24.212103,48.462315 22.774311,48.208939 
	C19.877428,47.698429 19.304054,45.591259 20.732845,42.642689 
z"/>
<path fill="#48A00F" opacity="1.000000" stroke="none" 
	d="
M36.828438,39.341099 
	C36.936661,40.993294 37.159492,42.610233 36.479668,43.618660 
	C36.145054,44.115025 33.930260,43.828636 32.967815,43.239975 
	C32.365116,42.871349 32.088989,40.541000 32.392353,40.368626 
	C33.633369,39.663483 35.153595,39.449734 36.828438,39.341099 
z"/>
<path fill="#FFFFFF" opacity="1.000000" stroke="none" 
	d="
M64.119987,62.111618 
	C64.490715,61.698792 65.049164,61.473484 65.607605,61.248177 
	C65.455360,61.582500 65.303108,61.916821 64.936050,62.441425 
	C64.583405,62.520855 64.445557,62.410000 64.119987,62.111618 
z"/>
</svg>