<?xml version="1.0" standalone="no"?>
<!DOCTYPE svg PUBLIC "-//W3C//DTD SVG 20010904//EN"
 "http://www.w3.org/TR/2001/REC-SVG-20010904/DTD/svg10.dtd">
<svg version="1.0" xmlns="http://www.w3.org/2000/svg"
 width="128.000000pt" height="128.000000pt" viewBox="0 0 128.000000 128.000000"
 preserveAspectRatio="xMidYMid meet">

<g transform="translate(0.000000,128.000000) scale(0.100000,-0.100000)"
fill="#000000" stroke="none">
<path d="M560 1034 c-142 -38 -229 -146 -238 -294 -5 -92 15 -153 88 -264 54
-83 207 -246 230 -246 23 0 169 156 227 242 28 42 61 103 73 135 40 106 16
245 -57 328 -78 89 -211 130 -323 99z m183 -81 c48 -19 120 -99 135 -151 21
-71 15 -131 -21 -207 -33 -68 -124 -191 -186 -249 l-31 -30 -31 30 c-62 58
-153 181 -186 249 -53 111 -43 208 30 291 78 88 177 111 290 67z"/>
<path d="M575 876 c-124 -54 -132 -236 -14 -297 73 -37 174 -14 214 47 91 139
-51 315 -200 250z m133 -89 c41 -42 28 -122 -25 -146 -56 -26 -114 -3 -133 53
-13 41 -1 76 37 106 35 27 86 22 121 -13z"/>
</g>
</svg>
