<?xml version="1.0" standalone="no"?>
<!DOCTYPE svg PUBLIC "-//W3C//DTD SVG 20010904//EN"
 "http://www.w3.org/TR/2001/REC-SVG-20010904/DTD/svg10.dtd">
<svg version="1.0" xmlns="http://www.w3.org/2000/svg"
 width="128.000000pt" height="128.000000pt" viewBox="0 0 128.000000 128.000000"
 preserveAspectRatio="xMidYMid meet">

<g transform="translate(0.000000,128.000000) scale(0.100000,-0.100000)"
fill="#000000" stroke="none">
<path d="M800 1211 l-155 -68 -3 -51 -3 -52 -179 0 c-232 0 -214 14 -300 -235
-61 -176 -67 -187 -97 -200 -56 -24 -63 -53 -63 -249 0 -186 5 -206 51 -206
17 0 19 -7 19 -59 0 -79 16 -91 123 -91 69 0 81 3 102 25 20 19 25 34 25 75
l0 50 255 0 255 0 0 -50 c0 -41 5 -56 25 -75 22 -22 32 -25 105 -25 73 0 83 3
105 25 20 19 25 34 25 75 0 41 3 50 18 50 38 0 42 18 42 205 0 143 -3 186 -16
210 -14 28 -14 31 4 45 11 8 36 28 56 43 20 15 46 47 59 70 21 39 22 54 22
232 l0 189 -155 67 c-85 37 -157 68 -160 68 -3 0 -75 -31 -160 -68z m308 -37
l132 -57 0 -164 c0 -182 -6 -208 -61 -259 -48 -43 -205 -154 -219 -154 -14 0
-171 111 -219 154 -55 51 -61 77 -61 259 l0 163 138 61 c75 33 142 59 147 58
6 -2 70 -29 143 -61z m-548 -194 c0 -16 -7 -20 -36 -20 -56 0 -74 -15 -74 -60
0 -59 18 -70 110 -70 l78 0 7 -37 c10 -56 40 -108 82 -142 l38 -31 -313 0
c-171 0 -312 3 -312 8 0 16 120 345 131 358 9 11 44 14 150 14 132 0 139 -1
139 -20z m80 0 c0 -13 -7 -20 -20 -20 -13 0 -20 7 -20 20 0 13 7 20 20 20 13
0 20 -7 20 -20z m0 -85 c0 -24 -2 -25 -75 -25 -73 0 -75 1 -75 25 0 24 2 25
75 25 73 0 75 -1 75 -25z m216 -337 l32 -22 -34 -31 c-43 -38 -53 -82 -26
-115 18 -22 29 -25 99 -28 108 -4 127 7 131 77 2 39 -1 58 -14 72 -16 18 -15
20 7 38 22 18 26 18 42 4 15 -14 17 -37 17 -190 l0 -173 -35 0 c-33 0 -35 2
-35 35 0 44 -32 63 -82 49 -29 -8 -33 -14 -36 -47 l-3 -37 -344 0 -344 0 -3
37 c-3 32 -7 39 -33 46 -18 5 -41 4 -57 -2 -23 -9 -28 -17 -28 -46 0 -33 -2
-35 -35 -35 l-35 0 0 170 c0 168 0 171 25 195 l24 25 367 0 c363 0 368 0 400
-22z m170 -95 c12 -45 -6 -58 -80 -61 -92 -4 -122 22 -76 68 16 16 33 20 85
20 62 0 65 -1 71 -27z m-836 -248 c0 -18 -5 -25 -20 -25 -15 0 -20 7 -20 25 0
18 5 25 20 25 15 0 20 -7 20 -25z m810 0 c0 -18 -5 -25 -20 -25 -15 0 -20 7
-20 25 0 18 5 25 20 25 15 0 20 -7 20 -25z m-722 -117 l-3 -53 -73 -3 c-89 -4
-102 5 -102 64 l0 44 91 0 90 0 -3 -52z m772 13 c0 -68 -3 -71 -90 -71 -87 0
-90 3 -90 71 l0 39 90 0 90 0 0 -39z"/>
<path d="M833 1133 l-103 -46 0 -149 c0 -111 4 -156 15 -177 8 -16 59 -61 115
-100 l100 -72 100 71 c55 39 107 84 115 100 11 22 15 65 15 178 l0 149 -107
47 c-60 25 -117 46 -128 45 -11 0 -66 -21 -122 -46z m227 -30 l90 -38 0 -142
0 -141 -39 -34 c-22 -19 -64 -51 -95 -72 l-55 -38 -74 51 c-123 85 -118 75
-115 236 l3 139 85 37 c47 21 91 38 97 38 7 1 53 -16 103 -36z"/>
<path d="M996 920 c-43 -55 -81 -100 -83 -100 -2 0 -20 12 -39 26 -31 24 -64
27 -64 6 0 -10 96 -82 109 -82 15 0 193 229 186 240 -14 22 -33 6 -109 -90z"/>
<path d="M312 943 c-25 -21 -107 -246 -97 -270 11 -29 32 6 70 117 21 58 42
111 47 118 6 6 24 12 40 12 23 0 29 4 26 18 -5 24 -59 28 -86 5z"/>
<path d="M107 512 c-22 -24 -23 -105 -2 -126 36 -35 181 -34 217 1 29 29 18
83 -23 117 -27 23 -40 26 -103 26 -58 0 -76 -4 -89 -18z m173 -42 c27 -27 26
-58 -3 -65 -13 -4 -50 -5 -82 -3 l-60 3 -3 43 -3 42 65 0 c53 0 70 -4 86 -20z"/>
<path d="M394 386 c-3 -7 -4 -42 -2 -77 l3 -64 175 -3 c199 -3 200 -2 200 76
0 83 3 82 -196 82 -138 0 -176 -3 -180 -14z m336 -66 l0 -40 -155 0 -155 0 0
40 0 40 155 0 155 0 0 -40z"/>
</g>
</svg>
