<?xml version="1.0" standalone="no"?>
<!DOCTYPE svg PUBLIC "-//W3C//DTD SVG 20010904//EN"
 "http://www.w3.org/TR/2001/REC-SVG-20010904/DTD/svg10.dtd">
<svg version="1.0" xmlns="http://www.w3.org/2000/svg"
 width="128.000000pt" height="128.000000pt" viewBox="0 0 128.000000 128.000000"
 preserveAspectRatio="xMidYMid meet">

<g transform="translate(0.000000,128.000000) scale(0.100000,-0.100000)"
fill="#000000" stroke="none">
<path d="M205 1264 c-43 -22 -142 -121 -172 -173 -68 -114 3 -358 171 -586
246 -335 693 -578 882 -478 54 29 171 154 182 195 16 64 4 87 -102 196 -56 57
-113 110 -128 118 -62 32 -123 9 -207 -80 -19 -20 -40 -36 -46 -36 -23 0 -151
99 -217 167 -70 72 -148 177 -148 199 0 8 20 32 45 55 68 63 88 101 82 156 -4
42 -13 54 -108 150 -130 131 -169 151 -234 117z m96 -69 c62 -46 188 -188 189
-214 0 -15 -23 -47 -71 -97 -82 -84 -82 -88 -23 -186 83 -136 326 -348 399
-348 10 0 51 32 91 70 46 45 80 70 94 70 15 0 57 -34 126 -102 131 -129 132
-132 33 -234 -82 -84 -115 -99 -192 -89 -277 38 -637 330 -797 646 -76 150
-101 280 -66 347 18 35 150 162 168 162 8 0 30 -11 49 -25z"/>
</g>
</svg>
